<svg xmlns="http://www.w3.org/2000/svg" width="76" height="30" viewBox="0 0 799 312" version="1.1"><path d="M 99.185 7.989 C 94.612 10.618, 90.866 13.103, 90.861 13.512 C 90.855 13.921, 95.047 16.710, 100.175 19.710 C 106.924 23.658, 109.914 24.910, 111 24.241 C 111.825 23.733, 115.200 21.826, 118.500 20.003 C 121.800 18.180, 125.510 16.034, 126.744 15.233 L 128.988 13.778 126.737 12.139 C 121.796 8.542, 110.745 2.958, 108.855 3.105 C 108.110 3.163, 103.758 5.361, 99.185 7.989 M 110.500 38.343 C 107.750 39.621, 104.263 40.975, 102.750 41.352 L 100 42.038 100 147.076 C 100 220.603, 100.332 253.434, 101.108 256.514 C 102.625 262.539, 110.769 271.076, 117.685 273.890 C 122.802 275.972, 123.871 276, 197.935 276 L 273 276 273 250.428 L 273 224.856 287.937 225.178 C 302.790 225.498, 302.891 225.516, 305.831 228.336 C 312.827 235.045, 311.961 248.385, 304.218 253.178 C 301.079 255.121, 298.826 255.538, 289.750 255.851 C 283.837 256.054, 279 256.630, 279 257.131 C 279 257.631, 281.059 262.140, 283.576 267.152 L 288.153 276.265 297.326 275.783 C 304.228 275.420, 307.614 274.733, 311 273.007 C 323.571 266.598, 329.994 256.825, 330.801 242.875 C 331.644 228.310, 326.636 216.922, 316.408 210.147 C 308.014 204.587, 304.280 204, 277.318 204 L 253 204 253 230 L 253 256 190.368 256 C 129.364 256, 127.651 255.948, 124.482 253.989 C 122.692 252.882, 120.957 250.970, 120.627 249.739 C 120.297 248.507, 120.021 199.912, 120.014 141.750 L 120 36 117.750 36.010 C 116.513 36.015, 113.250 37.065, 110.500 38.343 M 343.243 130.060 C 339.653 132.424, 338.572 135.210, 339.190 140.503 C 339.527 143.388, 339.274 144, 337.744 144 C 336.157 144, 335.934 144.682, 336.195 148.750 L 336.500 153.500 348 153.500 L 359.500 153.500 359.500 149 L 359.500 144.500 355.513 144.175 C 350.915 143.801, 349 142.538, 349 139.878 C 349 137.932, 349.501 137.721, 354.454 137.582 C 357.026 137.511, 357.526 137.008, 358.316 133.696 C 358.816 131.603, 358.939 129.606, 358.591 129.258 C 358.243 128.910, 355.380 128.465, 352.229 128.270 C 347.652 127.986, 345.845 128.346, 343.243 130.060 M 346.500 160.620 C 343.200 161.961, 339.825 163.432, 339 163.888 C 337.695 164.610, 337.500 171.908, 337.500 220.109 L 337.500 275.500 347.500 275.500 L 357.500 275.500 357.500 217 L 357.500 158.500 355 158.341 C 353.625 158.254, 349.800 159.280, 346.500 160.620 M 607.974 172.750 C 604.402 174.813, 600.247 177.139, 598.740 177.919 C 597.233 178.699, 596.003 179.599, 596.007 179.919 C 596.014 180.562, 612.767 190.310, 614.746 190.822 C 616.123 191.179, 634 181.172, 634 180.045 C 634 179.656, 632.763 178.716, 631.250 177.955 C 629.737 177.194, 627.375 175.821, 626 174.903 C 622.234 172.389, 616.036 169, 615.204 169 C 614.799 169, 611.546 170.688, 607.974 172.750 M 29.500 176.065 C 25.650 178.250, 21.488 180.551, 20.250 181.179 C 19.012 181.807, 18 182.628, 18 183.003 C 18 183.657, 36.032 194, 37.172 194 C 38.301 194, 56 183.806, 56 183.156 C 56 182.367, 54.610 181.471, 46.500 177.037 C 43.200 175.232, 40.072 173.361, 39.550 172.878 C 38.049 171.491, 36.943 171.842, 29.500 176.065 M 69.667 183.667 C 69.300 184.033, 69 199.749, 69 218.590 L 69 252.847 66.297 256.059 C 62.101 261.045, 58.621 262.003, 44.782 261.978 C 31.545 261.954, 26.597 260.636, 22.500 256.038 C 20.641 253.953, 20.479 252.143, 20.199 230.397 C 19.852 203.503, 20.699 205.206, 9.761 209.401 C 6.317 210.722, 2.712 212.058, 1.750 212.370 C 0.147 212.890, -0 214.973, -0 237.153 C -0 264.439, 0.360 266.117, 7.733 273.159 C 13.842 278.995, 22.701 281.877, 36.647 282.567 C 60.223 283.734, 74.367 280.568, 82.201 272.372 C 89.353 264.889, 89.398 264.611, 89.808 225.275 L 90.175 190.051 86.837 188.610 C 74.310 183.203, 71.065 182.269, 69.667 183.667 M 509.500 195.141 C 482.420 206.592, 479.478 208.604, 475.852 218.146 C 472.739 226.340, 473.696 233.444, 479.856 247.855 C 481.585 251.900, 483 255.413, 483 255.662 C 483 255.911, 470.288 255.976, 454.750 255.807 C 416.910 255.396, 418 256.143, 418 230.609 C 418 221.498, 417.594 214.867, 417.013 214.508 C 416.470 214.173, 412.308 215.087, 407.763 216.540 C 403.218 217.993, 398.867 219.379, 398.093 219.620 C 396.920 219.985, 396.795 223.052, 397.339 238.059 C 397.880 253.010, 398.318 256.703, 399.923 259.849 C 402.390 264.685, 408.566 270.266, 414.700 273.202 C 419.462 275.482, 419.866 275.502, 465.411 275.789 C 490.663 275.947, 511.702 275.698, 512.164 275.236 C 512.627 274.773, 511.834 271.493, 510.402 267.947 C 508.969 264.401, 506.987 259.475, 505.997 257 C 505.006 254.525, 502.561 248.675, 500.562 244 C 498.564 239.325, 496.672 233.686, 496.358 231.469 C 495.864 227.972, 496.179 227.020, 498.742 224.276 C 501.813 220.988, 506.558 219.106, 507.951 220.623 C 508.663 221.398, 523.632 264.322, 526.131 272.750 L 527.094 276 585.560 276 L 644.025 276 643.763 240.250 L 643.500 204.500 621 204.509 C 599.245 204.517, 598.338 204.598, 593.622 206.929 C 586.129 210.633, 578.808 218.491, 576.098 225.738 C 574.117 231.035, 573.870 233.185, 574.269 241.680 C 574.522 247.081, 575.067 252.512, 575.481 253.750 L 576.233 256 559.117 256 C 549.702 256, 542 255.882, 542 255.739 C 542 255.147, 534.374 233.409, 533.845 232.494 C 533.529 231.947, 532.318 228.575, 531.154 225 C 525.636 208.059, 519.359 192.507, 517.975 192.349 C 517.164 192.257, 513.350 193.513, 509.500 195.141 M 665 239.896 L 665 275.792 669.750 278.757 C 672.362 280.388, 677.200 283.216, 680.500 285.041 C 683.800 286.866, 689.650 290.224, 693.500 292.504 C 705.176 299.419, 727.682 312, 728.374 312 C 728.732 312, 728.907 295.692, 728.762 275.761 L 728.500 239.522 720 234.631 C 715.325 231.941, 709.404 228.561, 706.842 227.120 C 686.871 215.887, 677.169 210.354, 672.290 207.416 C 669.170 205.537, 666.254 204, 665.809 204 C 665.364 204, 665 220.153, 665 239.896 M 770.441 225.557 C 760.014 231.800, 752.419 241.576, 749.436 252.598 C 746.304 264.169, 749.734 275.277, 759.542 285.323 C 769.767 295.796, 772.982 296.026, 778.652 286.690 C 790.610 267, 797 250.030, 797 237.963 C 797 226.972, 792.501 222, 782.556 222 C 777.262 222, 775.536 222.507, 770.441 225.557 M 600.756 226.569 C 594.674 229.869, 592.219 240.610, 595.905 247.790 C 598.991 253.801, 602.897 255.461, 614 255.482 L 623.500 255.500 623.776 240.250 L 624.052 225 613.776 225.040 C 606.636 225.068, 602.662 225.534, 600.756 226.569 M 679.037 226.276 C 677.683 226.961, 675.916 229.254, 675.110 231.371 C 673.466 235.690, 674.240 241.297, 678.115 253.127 C 680.870 261.538, 690.486 280.742, 693.523 283.899 C 697.186 287.706, 709.888 276.632, 712.614 267.255 C 714.667 260.194, 713.940 254.428, 709.977 246.335 C 702.562 231.193, 687.990 221.745, 679.037 226.276 M 687.750 238.088 C 683.604 240.484, 686.867 251.658, 692.898 255.714 C 698.757 259.655, 703.037 258.309, 702.958 252.550 C 702.851 244.776, 692.769 235.189, 687.750 238.088 M 771.226 240.131 C 765.584 243.743, 761.379 253.027, 763.765 256.600 C 767.064 261.540, 775.197 258.912, 779.987 251.359 C 783.375 246.017, 783.709 243.458, 781.443 240.223 C 779.466 237.399, 775.546 237.364, 771.226 240.131 M 435.184 288.510 C 430.060 291.419, 425.685 293.982, 425.462 294.205 C 424.834 294.833, 443.010 305, 444.760 305 C 445.611 305, 449.196 303.385, 452.726 301.411 C 458.461 298.204, 459.324 297.978, 460.822 299.294 C 463.064 301.262, 470.576 305, 472.289 305 C 473.688 305, 488.569 296.831, 490.271 295.129 C 490.857 294.543, 487.589 292.058, 481.586 288.525 L 471.962 282.861 468.231 285.179 C 458.319 291.337, 459.294 291.230, 451.500 287.011 L 444.500 283.221 435.184 288.510" stroke="none" fill="#fa8304" fill-rule="evenodd"/><path d="M 60.500 1.494 C 41.754 7.567, 33.388 17.539, 30.925 36.747 L 29.749 45.920 22.124 46.210 L 14.500 46.500 14.500 58.500 L 14.500 70.500 22.250 70.792 L 30 71.084 30 113.842 C 30 145.765, 30.304 156.904, 31.200 157.800 C 32.846 159.446, 53.154 159.446, 54.800 157.800 C 55.696 156.904, 56 145.762, 56 113.830 L 56 71.060 68.750 70.780 L 81.500 70.500 81.500 58.500 L 81.500 46.500 68.750 46.220 L 56 45.940 56 41.120 C 56 37.395, 56.655 35.396, 58.884 32.319 C 62.501 27.326, 67.336 25, 75.845 24.158 L 82.500 23.500 82.782 11.750 L 83.063 0 73.782 0.099 C 68.677 0.153, 62.700 0.781, 60.500 1.494 M 99.482 146 C 99.482 202.925, 99.602 226.213, 99.750 197.750 C 99.897 169.288, 99.897 122.713, 99.750 94.250 C 99.602 65.788, 99.482 89.075, 99.482 146 M 177.411 44.484 C 157.931 48.722, 141.363 65.559, 136.558 86 C 133.370 99.559, 135.049 114.748, 141.166 127.696 C 145.487 136.843, 156.845 148.205, 166.256 152.796 C 184.341 161.617, 208.088 158.818, 222.110 146.211 L 226.902 141.903 227.201 148.201 L 227.500 154.500 239.759 154.781 L 252.017 155.062 251.759 100.781 L 251.500 46.500 239.500 46.500 L 227.500 46.500 227 52.816 L 226.500 59.132 223 55.507 C 213.045 45.199, 194.610 40.742, 177.411 44.484 M 311.147 44.075 C 305.725 45.141, 298.517 49.262, 294.250 53.735 L 291 57.142 291 51.571 L 291 46 279 46 L 267 46 267 100.531 L 267 155.062 279.250 154.781 L 291.500 154.500 291.149 124 C 290.750 89.379, 291.654 81.527, 296.788 75.048 C 300.446 70.432, 309.114 66, 314.483 66 C 320.751 66, 328.123 70.111, 331.064 75.247 C 333.385 79.299, 333.524 80.517, 334 101 L 334.500 122.500 346.659 122.780 L 358.818 123.060 359.179 103.280 C 359.526 84.218, 359.634 83.318, 362.161 78.500 C 365.311 72.494, 367.131 70.747, 373.018 68.077 C 383.879 63.150, 395.720 67.624, 400.602 78.500 C 401.096 79.600, 401.725 97.150, 402 117.500 L 402.500 154.500 414.750 154.781 L 427 155.062 427 118.167 C 427 97.440, 426.556 78.913, 425.986 75.886 C 422.723 58.554, 409.888 46.187, 392.574 43.693 C 378.271 41.632, 365.620 45.299, 356.868 54.042 L 352.236 58.669 349.608 55.376 C 341.666 45.422, 326.685 41.020, 311.147 44.075 M 476.411 44.484 C 459.248 48.218, 444.958 61.064, 437.457 79.500 C 434.796 86.042, 434.609 87.416, 434.609 100.500 C 434.609 113.584, 434.796 114.958, 437.457 121.500 C 448.057 147.554, 470.515 160.920, 497.333 157.136 C 507.052 155.765, 514.022 152.584, 520.942 146.362 L 526 141.815 526 148.438 L 526 155.062 538.250 154.781 L 550.500 154.500 550.777 102.500 C 550.929 73.900, 550.808 49.487, 550.508 48.250 C 549.979 46.072, 549.577 46, 537.981 46 L 526 46 526 52.637 L 526 59.274 520.968 54.567 C 510.320 44.607, 493.421 40.783, 476.411 44.484 M 611.304 44.439 C 604.471 45.998, 597.689 49.566, 593.939 53.577 L 591.500 56.185 591 51.343 L 590.500 46.500 578.250 46.219 L 566 45.938 566 100.469 L 566 155 577.893 155 C 587.815 155, 589.887 154.738, 590.393 153.418 C 590.727 152.548, 591 137.545, 591 120.077 C 591 85.611, 591.437 82.049, 596.478 75.440 C 597.933 73.532, 601.459 70.751, 604.312 69.261 C 608.605 67.018, 610.794 66.549, 617 66.545 C 627.518 66.538, 633.804 70.057, 638.347 78.500 C 640.420 82.350, 640.511 83.855, 640.807 118.750 L 641.114 155 653.057 155 L 665 155 665 116.182 C 665 73.485, 664.751 71.287, 658.815 61.500 C 654.905 55.053, 647.063 48.542, 640.045 45.915 C 632.852 43.222, 619.615 42.543, 611.304 44.439 M 716.500 45.433 C 691.197 51.824, 674.933 73.612, 675.036 100.980 C 675.101 118.574, 679.769 130.636, 690.827 141.788 C 700.098 151.137, 708.974 155.480, 723.250 157.651 C 733.176 159.161, 734.803 159.162, 744.471 157.666 C 758.316 155.524, 765.674 152.125, 774.276 143.896 C 782.238 136.278, 782.637 134.349, 777.021 130.633 C 774.833 129.185, 772.799 128, 772.502 128 C 772.204 128, 770.178 126.875, 768 125.500 C 765.822 124.125, 763.566 123, 762.987 123 C 762.407 123, 760.300 124.634, 758.303 126.630 C 756.307 128.627, 752.159 131.439, 749.086 132.880 C 744.282 135.133, 742.170 135.499, 734 135.493 C 725.450 135.486, 723.841 135.174, 717.904 132.367 C 710.583 128.907, 704.587 122.715, 702.359 116.317 C 701.628 114.218, 701.023 112.388, 701.015 112.250 C 701.007 112.112, 720.073 112, 743.383 112 L 785.767 112 786.370 109.750 C 787.540 105.382, 786.980 91.546, 785.370 85.064 C 782.964 75.377, 778.778 67.862, 771.481 60.127 C 764.244 52.455, 754.969 46.946, 746.201 45.110 C 739.262 43.657, 722.824 43.836, 716.500 45.433 M 186.459 67.395 C 174.965 70.187, 167.718 75.852, 162.755 85.924 C 160.870 89.750, 160.500 92.139, 160.503 100.500 C 160.505 109.080, 160.853 111.206, 162.950 115.474 C 173.062 136.045, 200.344 140.717, 216.819 124.699 C 219.195 122.390, 222.322 118.025, 223.769 115 C 226.013 110.308, 226.397 108.179, 226.383 100.500 C 226.369 92.411, 226.054 90.893, 223.269 85.500 C 218.032 75.358, 210.390 69.545, 199 67.039 C 193.516 65.832, 192.807 65.853, 186.459 67.395 M 486.500 67.026 C 475.936 69.155, 466.476 76.333, 461.849 85.730 C 459.858 89.772, 459.500 92.025, 459.500 100.500 C 459.500 112.468, 461.566 117.727, 469.191 125.174 C 485.978 141.568, 514.660 135.034, 523.380 112.829 C 525.112 108.420, 526 104.241, 526 100.500 C 526 88.657, 518.255 75.781, 507.960 70.505 C 504.202 68.580, 493.155 65.705, 491.066 66.110 C 490.755 66.170, 488.700 66.582, 486.500 67.026 M 722.416 67.487 C 713.140 70.416, 706.545 76.229, 702.930 84.663 C 699.783 92.005, 699.778 92, 710.467 92 L 719.933 92 723.485 95.552 C 726.756 98.822, 727.442 99.079, 732.165 98.802 C 737.238 98.503, 738.118 97.889, 739.396 93.750 C 739.869 92.222, 741.335 92, 750.969 92 C 763.793 92, 763.896 91.884, 759.433 82.450 C 753.497 69.903, 736.511 63.037, 722.416 67.487 M 335.079 148.691 C 335.036 150.996, 335.356 153.102, 335.791 153.371 C 336.226 153.640, 336.418 152.204, 336.219 150.180 C 335.672 144.646, 335.168 143.987, 335.079 148.691 M 707 171.131 C 703.975 172.825, 699.700 175.219, 697.500 176.452 C 685.800 183.005, 673.414 190.207, 672.792 190.820 C 671.589 192.003, 673.291 193.631, 678.500 196.283 C 681.250 197.682, 694.958 205.391, 708.962 213.414 C 722.966 221.436, 734.908 228, 735.500 228 C 736.919 228, 740.262 226.195, 760.500 214.494 C 769.850 209.089, 780.875 202.771, 785 200.455 C 797.497 193.437, 798.987 192.525, 798.994 191.883 C 799 191.301, 791.486 186, 790.654 186 C 790.441 186, 783.118 181.902, 774.383 176.893 L 758.500 167.786 753.500 168.968 C 742.580 171.550, 723.874 171.320, 714 168.482 C 713.175 168.245, 710.025 169.437, 707 171.131 M 120.450 214.500 C 120.451 233.750, 120.585 241.483, 120.749 231.685 C 120.913 221.888, 120.912 206.138, 120.748 196.685 C 120.584 187.233, 120.450 195.250, 120.450 214.500 M 20.429 229.500 C 20.429 242.150, 20.573 247.187, 20.747 240.694 C 20.922 234.200, 20.921 223.850, 20.746 217.694 C 20.571 211.537, 20.428 216.850, 20.429 229.500 M 780.750 221.706 C 781.987 221.944, 784.013 221.944, 785.250 221.706 C 786.487 221.467, 785.475 221.272, 783 221.272 C 780.525 221.272, 779.513 221.467, 780.750 221.706 M 623.220 239.710 L 623 254.919 614.750 255.256 L 606.500 255.593 614.781 255.796 C 620.793 255.944, 623.199 255.645, 623.560 254.704 C 623.834 253.991, 623.919 246.904, 623.749 238.954 L 623.441 224.500 623.220 239.710 M 331.310 239.500 C 331.315 242.800, 331.502 244.029, 331.725 242.232 C 331.947 240.435, 331.943 237.735, 331.715 236.232 C 331.486 234.729, 331.304 236.200, 331.310 239.500 M 573.328 240.500 C 573.333 244.350, 573.513 245.802, 573.730 243.728 C 573.946 241.653, 573.943 238.503, 573.722 236.728 C 573.501 234.952, 573.324 236.650, 573.328 240.500 M 397.286 248.500 C 397.294 251.250, 397.488 252.256, 397.718 250.736 C 397.947 249.216, 397.941 246.966, 397.704 245.736 C 397.467 244.506, 397.279 245.750, 397.286 248.500 M 455.500 255 L 428.500 255.549 455.750 255.775 C 473.400 255.921, 483 255.648, 483 255 C 483 254.450, 482.887 254.101, 482.750 254.225 C 482.613 254.349, 470.350 254.698, 455.500 255 M 158.250 255.749 C 175.712 255.903, 204.287 255.903, 221.750 255.749 C 239.212 255.596, 224.925 255.471, 190 255.471 C 155.075 255.471, 140.787 255.596, 158.250 255.749 M 284.250 255.735 C 286.863 255.941, 291.137 255.941, 293.750 255.735 C 296.363 255.529, 294.225 255.360, 289 255.360 C 283.775 255.360, 281.637 255.529, 284.250 255.735 M 550.250 255.745 C 555.063 255.928, 562.938 255.928, 567.750 255.745 C 572.563 255.561, 568.625 255.411, 559 255.411 C 549.375 255.411, 545.438 255.561, 550.250 255.745 M 337.655 276.250 C 337.909 276.663, 342.340 277, 347.500 277 C 352.660 277, 357.091 276.663, 357.345 276.250 C 357.600 275.837, 353.170 275.500, 347.500 275.500 C 341.830 275.500, 337.400 275.837, 337.655 276.250 M 468.500 276 L 424.500 276.532 468.191 276.766 C 496.495 276.918, 512.100 276.648, 512.500 276 C 512.840 275.450, 512.979 275.105, 512.809 275.234 C 512.639 275.363, 492.700 275.708, 468.500 276 M 161.750 276.750 C 182.238 276.901, 215.762 276.901, 236.250 276.750 C 256.738 276.599, 239.975 276.475, 199 276.475 C 158.025 276.475, 141.262 276.599, 161.750 276.750 M 291.750 276.723 C 293.538 276.945, 296.462 276.945, 298.250 276.723 C 300.038 276.502, 298.575 276.320, 295 276.320 C 291.425 276.320, 289.962 276.502, 291.750 276.723 M 557.500 276.965 C 574 277.259, 600.325 277.258, 616 276.963 C 635.513 276.594, 626.053 276.426, 586 276.427 C 544.085 276.429, 536.005 276.581, 557.500 276.965" stroke="none" fill="#230443" fill-rule="evenodd"/></svg>